<svg xmlns="http://www.w3.org/2000/svg" viewBox="0 0 900 200" width="900" height="200">

  <!-- Icon mark (120x120) -->
  <rect x="10" y="20" width="160" height="160" rx="36" fill="#4a7c59"/>

  <!-- Leaf -->
  <path d="M90 48 C136 48 162 76 162 112 C162 144 136 164 90 174 C44 164 18 144 18 112 C18 76 44 48 90 48Z"
    fill="#3a6649"/>
  <path d="M90 62 C128 62 152 86 152 112 C152 136 130 154 98 168 C104 152 112 132 112 112 C112 90 104 70 90 62Z"
    fill="#5a8f6b"/>

  <!-- Central vein -->
  <path d="M90 172 C90 148 90 124 90 88 C90 72 93 60 90 48"
    fill="none" stroke="#2e5038" stroke-width="3" stroke-linecap="round"/>

  <!-- Side veins -->
  <path d="M90 118 C72 110 56 106 44 104" fill="none" stroke="#2e5038" stroke-width="2" stroke-linecap="round" opacity="0.5"/>
  <path d="M90 98  C74 90  60 86  50 83"  fill="none" stroke="#2e5038" stroke-width="2" stroke-linecap="round" opacity="0.4"/>
  <path d="M90 132 C108 124 122 118 132 112" fill="none" stroke="#2e5038" stroke-width="2" stroke-linecap="round" opacity="0.5"/>

  <!-- Clock -->
  <circle cx="90" cy="114" r="36" fill="none" stroke="#ffffff" stroke-width="4" opacity="0.9"/>
  <line x1="90" y1="114" x2="90"  y2="86"  stroke="#ffffff" stroke-width="4" stroke-linecap="round"/>
  <line x1="90" y1="114" x2="114" y2="124" stroke="#ffffff" stroke-width="3" stroke-linecap="round"/>
  <circle cx="90" cy="114" r="4" fill="#ffffff"/>

  <!-- Wordmark -->
  <text
    x="196" y="118"
    font-family="'DM Sans', 'Segoe UI', Helvetica, Arial, sans-serif"
    font-weight="700"
    font-size="72"
    fill="#1a2318"
    letter-spacing="-1">FreshKeep</text>

  <!-- Tagline -->
  <text
    x="200" y="153"
    font-family="'DM Sans', 'Segoe UI', Helvetica, Arial, sans-serif"
    font-weight="400"
    font-size="16"
    fill="#6b7b6e"
    letter-spacing="4">SMART EXPIRY TRACKER</text>

</svg>
